<?xml version="1.0" encoding="UTF-8"?>
<svg xmlns="http://www.w3.org/2000/svg" xmlns:xlink="http://www.w3.org/1999/xlink" width="1920" height="1080" viewBox="0 0 1920 1080">
<defs>
<g>
<g id="glyph-0-0">
<path d="M 4.074219 -2.882812 L 4.074219 -7.40625 L 1.167969 -2.882812 L 4.074219 -2.882812 M 6.578125 0 L 2.707031 0 L 2.707031 -0.605469 L 4.074219 -0.605469 L 4.074219 -2.273438 L 0.359375 -2.273438 L 0.359375 -2.894531 L 4.085938 -8.660156 L 5.210938 -8.660156 L 5.210938 -2.882812 L 6.835938 -2.882812 L 6.835938 -2.273438 L 5.210938 -2.273438 L 5.210938 -0.605469 L 6.578125 -0.605469 Z "/>
</g>
<g id="glyph-0-1">
<path d="M 1.097656 -0.59375 C 1.097656 -0.804688 1.171875 -0.984375 1.316406 -1.132812 C 1.460938 -1.28125 1.640625 -1.355469 1.855469 -1.355469 C 2.066406 -1.355469 2.246094 -1.28125 2.390625 -1.132812 C 2.539062 -0.984375 2.613281 -0.804688 2.613281 -0.59375 C 2.613281 -0.382812 2.539062 -0.203125 2.390625 -0.0585938 C 2.246094 0.0898438 2.066406 0.164062 1.855469 0.164062 C 1.640625 0.164062 1.460938 0.09375 1.316406 -0.0546875 C 1.171875 -0.199219 1.097656 -0.378906 1.097656 -0.59375 Z "/>
</g>
<g id="glyph-0-2">
</g>
<g id="glyph-0-3">
<path d="M 2.226562 0 L 2.226562 -0.605469 L 3.316406 -0.605469 L 3.316406 -7.828125 L 0.816406 -7.828125 L 0.816406 -6.5 L 0.113281 -6.5 L 0.113281 -8.503906 L 7.667969 -8.503906 L 7.667969 -6.5 L 6.96875 -6.5 L 6.96875 -7.828125 L 4.464844 -7.828125 L 4.464844 -0.605469 L 5.554688 -0.605469 L 5.554688 0 Z "/>
</g>
<g id="glyph-0-4">
<path d="M 5.578125 -6.066406 L 5.578125 -4.550781 L 4.972656 -4.550781 C 4.953125 -4.851562 4.871094 -5.074219 4.722656 -5.222656 C 4.574219 -5.371094 4.359375 -5.445312 4.074219 -5.445312 C 3.554688 -5.445312 3.160156 -5.265625 2.886719 -4.910156 C 2.609375 -4.554688 2.472656 -4.039062 2.472656 -3.371094 L 2.472656 -0.605469 L 3.6875 -0.605469 L 3.6875 0 L 0.476562 0 L 0.476562 -0.605469 L 1.425781 -0.605469 L 1.425781 -5.457031 L 0.421875 -5.457031 L 0.421875 -6.054688 L 2.472656 -6.054688 L 2.472656 -4.980469 C 2.675781 -5.398438 2.941406 -5.710938 3.265625 -5.914062 C 3.585938 -6.117188 3.980469 -6.21875 4.445312 -6.21875 C 4.613281 -6.21875 4.792969 -6.207031 4.980469 -6.179688 C 5.167969 -6.152344 5.367188 -6.117188 5.578125 -6.066406 Z "/>
</g>
<g id="glyph-0-5">
<path d="M 3.507812 -0.398438 C 4.070312 -0.398438 4.496094 -0.621094 4.78125 -1.066406 C 5.070312 -1.507812 5.210938 -2.164062 5.210938 -3.03125 C 5.210938 -3.898438 5.070312 -4.550781 4.78125 -4.992188 C 4.496094 -5.433594 4.070312 -5.65625 3.507812 -5.65625 C 2.945312 -5.65625 2.523438 -5.433594 2.234375 -4.992188 C 1.949219 -4.550781 1.804688 -3.898438 1.804688 -3.03125 C 1.804688 -2.164062 1.949219 -1.507812 2.238281 -1.066406 C 2.527344 -0.621094 2.949219 -0.398438 3.507812 -0.398438 M 3.507812 0.164062 C 2.628906 0.164062 1.917969 -0.125 1.382812 -0.710938 C 0.847656 -1.292969 0.582031 -2.066406 0.582031 -3.03125 C 0.582031 -3.996094 0.847656 -4.769531 1.382812 -5.347656 C 1.914062 -5.929688 2.625 -6.21875 3.507812 -6.21875 C 4.394531 -6.21875 5.101562 -5.929688 5.636719 -5.347656 C 6.171875 -4.769531 6.4375 -3.996094 6.4375 -3.03125 C 6.4375 -2.066406 6.171875 -1.292969 5.636719 -0.710938 C 5.101562 -0.125 4.394531 0.164062 3.507812 0.164062 Z "/>
</g>
<g id="glyph-0-6">
<path d="M 1.132812 -7.933594 C 1.132812 -8.109375 1.195312 -8.261719 1.324219 -8.390625 C 1.453125 -8.519531 1.605469 -8.585938 1.78125 -8.585938 C 1.957031 -8.585938 2.109375 -8.519531 2.234375 -8.390625 C 2.363281 -8.261719 2.425781 -8.109375 2.425781 -7.933594 C 2.425781 -7.757812 2.363281 -7.605469 2.238281 -7.480469 C 2.113281 -7.355469 1.960938 -7.292969 1.78125 -7.292969 C 1.605469 -7.292969 1.453125 -7.355469 1.324219 -7.480469 C 1.195312 -7.605469 1.132812 -7.757812 1.132812 -7.933594 M 2.472656 -0.605469 L 3.464844 -0.605469 L 3.464844 0 L 0.421875 0 L 0.421875 -0.605469 L 1.425781 -0.605469 L 1.425781 -5.445312 L 0.421875 -5.445312 L 0.421875 -6.054688 L 2.472656 -6.054688 Z "/>
</g>
<g id="glyph-0-7">
<path d="M 0.65625 -0.335938 L 0.65625 -1.75 L 1.257812 -1.75 C 1.273438 -1.296875 1.414062 -0.957031 1.683594 -0.734375 C 1.949219 -0.511719 2.347656 -0.398438 2.871094 -0.398438 C 3.34375 -0.398438 3.699219 -0.488281 3.949219 -0.664062 C 4.195312 -0.839844 4.316406 -1.097656 4.316406 -1.4375 C 4.316406 -1.703125 4.226562 -1.914062 4.046875 -2.078125 C 3.867188 -2.242188 3.484375 -2.417969 2.90625 -2.601562 L 2.148438 -2.859375 C 1.628906 -3.027344 1.25 -3.234375 1.015625 -3.484375 C 0.785156 -3.738281 0.667969 -4.054688 0.667969 -4.445312 C 0.667969 -4.996094 0.871094 -5.433594 1.277344 -5.746094 C 1.683594 -6.0625 2.246094 -6.21875 2.960938 -6.21875 C 3.28125 -6.21875 3.617188 -6.179688 3.96875 -6.09375 C 4.324219 -6.011719 4.6875 -5.890625 5.0625 -5.730469 L 5.0625 -4.410156 L 4.460938 -4.410156 C 4.445312 -4.800781 4.308594 -5.105469 4.050781 -5.328125 C 3.792969 -5.546875 3.441406 -5.65625 2.996094 -5.65625 C 2.554688 -5.65625 2.222656 -5.578125 1.996094 -5.421875 C 1.769531 -5.265625 1.65625 -5.035156 1.65625 -4.722656 C 1.65625 -4.46875 1.742188 -4.265625 1.914062 -4.109375 C 2.085938 -3.957031 2.425781 -3.800781 2.9375 -3.640625 L 3.769531 -3.382812 C 4.34375 -3.207031 4.757812 -2.980469 5.011719 -2.714844 C 5.261719 -2.445312 5.390625 -2.101562 5.390625 -1.679688 C 5.390625 -1.105469 5.167969 -0.65625 4.730469 -0.328125 C 4.292969 0 3.6875 0.164062 2.917969 0.164062 C 2.527344 0.164062 2.144531 0.125 1.773438 0.0390625 C 1.398438 -0.0429688 1.027344 -0.167969 0.65625 -0.335938 Z "/>
</g>
<g id="glyph-0-8">
<path d="M 6.324219 -2.917969 L 1.804688 -2.917969 L 1.804688 -2.871094 C 1.804688 -2.054688 1.960938 -1.4375 2.265625 -1.023438 C 2.574219 -0.605469 3.027344 -0.398438 3.628906 -0.398438 C 4.089844 -0.398438 4.464844 -0.519531 4.757812 -0.761719 C 5.054688 -1 5.261719 -1.359375 5.378906 -1.835938 L 6.21875 -1.835938 C 6.054688 -1.167969 5.746094 -0.671875 5.296875 -0.335938 C 4.84375 0 4.253906 0.164062 3.519531 0.164062 C 2.636719 0.164062 1.925781 -0.125 1.386719 -0.710938 C 0.851562 -1.292969 0.582031 -2.066406 0.582031 -3.03125 C 0.582031 -3.988281 0.84375 -4.757812 1.371094 -5.34375 C 1.902344 -5.929688 2.59375 -6.21875 3.453125 -6.21875 C 4.367188 -6.21875 5.070312 -5.9375 5.558594 -5.375 C 6.050781 -4.8125 6.304688 -3.992188 6.324219 -2.917969 M 5.085938 -3.519531 C 5.0625 -4.226562 4.914062 -4.757812 4.640625 -5.117188 C 4.363281 -5.476562 3.96875 -5.65625 3.453125 -5.65625 C 2.96875 -5.65625 2.589844 -5.476562 2.3125 -5.117188 C 2.035156 -4.753906 1.867188 -4.222656 1.804688 -3.519531 Z "/>
</g>
<g id="glyph-0-9">
<path d="M 3.394531 -3.695312 L 4.664062 -5.445312 L 3.851562 -5.445312 L 3.851562 -6.054688 L 6.179688 -6.054688 L 6.179688 -5.445312 L 5.378906 -5.445312 L 3.753906 -3.207031 L 5.644531 -0.605469 L 6.4375 -0.605469 L 6.4375 0 L 3.640625 0 L 3.640625 -0.605469 L 4.410156 -0.605469 L 3.09375 -2.414062 L 1.773438 -0.605469 L 2.558594 -0.605469 L 2.558594 0 L 0.257812 0 L 0.257812 -0.605469 L 1.058594 -0.605469 L 2.730469 -2.90625 L 0.890625 -5.445312 L 0.140625 -5.445312 L 0.140625 -6.054688 L 2.847656 -6.054688 L 2.847656 -5.445312 L 2.125 -5.445312 Z "/>
</g>
<g id="glyph-0-10">
<path d="M 6.042969 -4.875 C 6.246094 -5.320312 6.503906 -5.65625 6.816406 -5.882812 C 7.128906 -6.109375 7.496094 -6.21875 7.914062 -6.21875 C 8.546875 -6.21875 9.019531 -6.023438 9.332031 -5.632812 C 9.640625 -5.238281 9.796875 -4.644531 9.796875 -3.851562 L 9.796875 -0.605469 L 10.742188 -0.605469 L 10.742188 0 L 7.839844 0 L 7.839844 -0.605469 L 8.75 -0.605469 L 8.75 -3.730469 C 8.75 -4.351562 8.660156 -4.789062 8.476562 -5.054688 C 8.292969 -5.316406 7.992188 -5.445312 7.570312 -5.445312 C 7.105469 -5.445312 6.746094 -5.269531 6.503906 -4.917969 C 6.257812 -4.5625 6.136719 -4.046875 6.136719 -3.371094 L 6.136719 -0.605469 L 7.046875 -0.605469 L 7.046875 0 L 4.175781 0 L 4.175781 -0.605469 L 5.085938 -0.605469 L 5.085938 -3.769531 C 5.085938 -4.375 4.996094 -4.804688 4.8125 -5.0625 C 4.632812 -5.316406 4.328125 -5.445312 3.90625 -5.445312 C 3.441406 -5.445312 3.085938 -5.269531 2.839844 -4.917969 C 2.59375 -4.5625 2.472656 -4.046875 2.472656 -3.371094 L 2.472656 -0.605469 L 3.382812 -0.605469 L 3.382812 0 L 0.476562 0 L 0.476562 -0.605469 L 1.425781 -0.605469 L 1.425781 -5.457031 L 0.421875 -5.457031 L 0.421875 -6.054688 L 2.472656 -6.054688 L 2.472656 -4.980469 C 2.664062 -5.382812 2.914062 -5.6875 3.210938 -5.902344 C 3.511719 -6.113281 3.851562 -6.21875 4.234375 -6.21875 C 4.703125 -6.21875 5.097656 -6.105469 5.410156 -5.871094 C 5.726562 -5.636719 5.9375 -5.304688 6.042969 -4.875 Z "/>
</g>
<g id="glyph-0-11">
<path d="M 2.390625 -3.328125 L 2.390625 -2.730469 C 2.390625 -2 2.53125 -1.445312 2.8125 -1.0625 C 3.089844 -0.679688 3.496094 -0.488281 4.027344 -0.488281 C 4.5625 -0.488281 4.96875 -0.703125 5.242188 -1.132812 C 5.519531 -1.5625 5.65625 -2.195312 5.65625 -3.03125 C 5.65625 -3.871094 5.519531 -4.503906 5.242188 -4.925781 C 4.96875 -5.351562 4.5625 -5.566406 4.027344 -5.566406 C 3.496094 -5.566406 3.089844 -5.375 2.8125 -4.992188 C 2.53125 -4.605469 2.390625 -4.050781 2.390625 -3.328125 M 1.34375 -5.445312 L 0.335938 -5.445312 L 0.335938 -6.054688 L 2.390625 -6.054688 L 2.390625 -5.109375 C 2.597656 -5.488281 2.859375 -5.769531 3.175781 -5.949219 C 3.492188 -6.128906 3.886719 -6.21875 4.351562 -6.21875 C 5.097656 -6.21875 5.703125 -5.925781 6.175781 -5.335938 C 6.644531 -4.75 6.882812 -3.980469 6.882812 -3.03125 C 6.882812 -2.082031 6.644531 -1.3125 6.175781 -0.71875 C 5.703125 -0.128906 5.097656 0.164062 4.351562 0.164062 C 3.886719 0.164062 3.492188 0.0742188 3.175781 -0.105469 C 2.859375 -0.285156 2.597656 -0.566406 2.390625 -0.945312 L 2.390625 1.816406 L 3.382812 1.816406 L 3.382812 2.425781 L 0.335938 2.425781 L 0.335938 1.816406 L 1.34375 1.816406 Z "/>
</g>
<g id="glyph-0-12">
<path d="M 2.390625 -0.605469 L 3.382812 -0.605469 L 3.382812 0 L 0.335938 0 L 0.335938 -0.605469 L 1.34375 -0.605469 L 1.34375 -8.261719 L 0.335938 -8.261719 L 0.335938 -8.863281 L 2.390625 -8.863281 Z "/>
</g>
<g id="glyph-0-13">
<path d="M 4.644531 -1.902344 L 4.644531 -3.183594 L 3.292969 -3.183594 C 2.773438 -3.183594 2.386719 -3.074219 2.128906 -2.847656 C 1.875 -2.625 1.75 -2.28125 1.75 -1.816406 C 1.75 -1.394531 1.878906 -1.0625 2.136719 -0.816406 C 2.394531 -0.566406 2.742188 -0.445312 3.183594 -0.445312 C 3.621094 -0.445312 3.972656 -0.578125 4.242188 -0.847656 C 4.507812 -1.117188 4.644531 -1.46875 4.644531 -1.902344 M 5.691406 -3.78125 L 5.691406 -0.605469 L 6.625 -0.605469 L 6.625 0 L 4.644531 0 L 4.644531 -0.65625 C 4.410156 -0.375 4.144531 -0.167969 3.839844 -0.0351562 C 3.535156 0.0976562 3.179688 0.164062 2.773438 0.164062 C 2.101562 0.164062 1.570312 -0.0117188 1.171875 -0.371094 C 0.777344 -0.726562 0.582031 -1.210938 0.582031 -1.816406 C 0.582031 -2.445312 0.808594 -2.929688 1.257812 -3.277344 C 1.710938 -3.621094 2.347656 -3.792969 3.171875 -3.792969 L 4.644531 -3.792969 L 4.644531 -4.210938 C 4.644531 -4.667969 4.503906 -5.023438 4.222656 -5.277344 C 3.945312 -5.53125 3.554688 -5.65625 3.046875 -5.65625 C 2.628906 -5.65625 2.296875 -5.5625 2.050781 -5.371094 C 1.804688 -5.183594 1.648438 -4.902344 1.589844 -4.527344 L 1.046875 -4.527344 L 1.046875 -5.753906 C 1.414062 -5.910156 1.765625 -6.027344 2.109375 -6.105469 C 2.453125 -6.183594 2.789062 -6.21875 3.117188 -6.21875 C 3.957031 -6.21875 4.59375 -6.011719 5.03125 -5.597656 C 5.472656 -5.179688 5.691406 -4.578125 5.691406 -3.78125 Z "/>
</g>
<g id="glyph-0-14">
<path d="M 6.125 -0.605469 L 7.125 -0.605469 L 7.125 0 L 5.074219 0 L 5.074219 -0.945312 C 4.871094 -0.566406 4.609375 -0.285156 4.292969 -0.105469 C 3.976562 0.0742188 3.582031 0.164062 3.117188 0.164062 C 2.371094 0.164062 1.761719 -0.128906 1.289062 -0.71875 C 0.816406 -1.3125 0.582031 -2.082031 0.582031 -3.03125 C 0.582031 -3.980469 0.816406 -4.75 1.289062 -5.335938 C 1.757812 -5.925781 2.367188 -6.21875 3.117188 -6.21875 C 3.582031 -6.21875 3.976562 -6.128906 4.292969 -5.949219 C 4.609375 -5.769531 4.871094 -5.488281 5.074219 -5.109375 L 5.074219 -8.261719 L 4.085938 -8.261719 L 4.085938 -8.863281 L 6.125 -8.863281 L 6.125 -0.605469 M 5.074219 -2.730469 L 5.074219 -3.328125 C 5.074219 -4.050781 4.9375 -4.605469 4.65625 -4.992188 C 4.378906 -5.375 3.972656 -5.566406 3.441406 -5.566406 C 2.902344 -5.566406 2.496094 -5.351562 2.21875 -4.925781 C 1.945312 -4.503906 1.804688 -3.871094 1.804688 -3.03125 C 1.804688 -2.195312 1.945312 -1.5625 2.21875 -1.132812 C 2.496094 -0.703125 2.902344 -0.488281 3.441406 -0.488281 C 3.972656 -0.488281 4.378906 -0.679688 4.65625 -1.0625 C 4.9375 -1.445312 5.074219 -2 5.074219 -2.730469 Z "/>
</g>
</g>
</defs>
<g fill="rgb(100%, 84.313725%, 0%)" fill-opacity="1">
<use xlink:href="#glyph-0-0" x="30" y="30.829102"/>
<use xlink:href="#glyph-0-1" x="37" y="30.829102"/>
<use xlink:href="#glyph-0-2" x="41" y="30.829102"/>
<use xlink:href="#glyph-0-3" x="45" y="30.829102"/>
<use xlink:href="#glyph-0-4" x="53" y="30.829102"/>
<use xlink:href="#glyph-0-5" x="59" y="30.829102"/>
<use xlink:href="#glyph-0-6" x="66" y="30.829102"/>
<use xlink:href="#glyph-0-7" x="70" y="30.829102"/>
<use xlink:href="#glyph-0-2" x="76" y="30.829102"/>
<use xlink:href="#glyph-0-8" x="80" y="30.829102"/>
<use xlink:href="#glyph-0-9" x="87" y="30.829102"/>
<use xlink:href="#glyph-0-8" x="94" y="30.829102"/>
<use xlink:href="#glyph-0-10" x="101" y="30.829102"/>
<use xlink:href="#glyph-0-11" x="112" y="30.829102"/>
<use xlink:href="#glyph-0-12" x="119" y="30.829102"/>
<use xlink:href="#glyph-0-8" x="123" y="30.829102"/>
<use xlink:href="#glyph-0-7" x="130" y="30.829102"/>
<use xlink:href="#glyph-0-2" x="136" y="30.829102"/>
<use xlink:href="#glyph-0-4" x="140" y="30.829102"/>
<use xlink:href="#glyph-0-13" x="146" y="30.829102"/>
<use xlink:href="#glyph-0-11" x="153" y="30.829102"/>
<use xlink:href="#glyph-0-6" x="160" y="30.829102"/>
<use xlink:href="#glyph-0-14" x="164" y="30.829102"/>
<use xlink:href="#glyph-0-8" x="171" y="30.829102"/>
<use xlink:href="#glyph-0-7" x="178" y="30.829102"/>
</g>
</svg>
